<?xml version="1.0" encoding="utf-8"?>
<svg xmlns="http://www.w3.org/2000/svg" fill="none" height="53" viewBox="0 0 158 53" width="158">
<path d="M56.552 7.25337C56.2844 7.42066 55.6484 7.58808 55.18 7.58808C54.1761 7.58808 50.7626 8.62551 50.9968 8.85971C51.0972 8.92663 52.6697 9.06046 54.5441 9.12737C58.3926 9.29466 60.3671 9.72973 64.0816 11.3026C69.9382 13.7122 77.3674 20.0037 82.2868 26.6635C84.5624 29.7423 84.6293 29.8762 84.0938 30.6458C83.5249 31.516 75.6607 41.5889 73.5858 44.0987C72.9165 44.9352 72.448 45.7716 72.5484 45.9393C72.6822 46.1066 74.7571 46.1735 77.3674 46.0731L81.9521 45.9058L87.9085 38.2088C98.4504 24.5549 100.157 22.3128 103.336 18.2634C105.043 16.0547 106.348 14.1137 106.248 13.9464C106.114 13.7456 104.173 13.6117 101.864 13.6117H97.6807L96.5429 14.8499C95.5055 16.0546 94.1335 17.7947 90.9877 21.8776C90.2515 22.8481 89.4818 23.6518 89.2476 23.6518C89.0133 23.6518 88.277 22.9486 87.6078 22.045C82.086 14.85 74.3556 9.52924 66.5917 7.65499C64.0148 7.05263 57.2884 6.75151 56.552 7.25337Z" fill="#FFCC2F"/>
<path d="M1.5689 13.8836C1.03346 13.9839 1 15.3225 1 30.0472C1 45.073 1.03346 46.077 1.60236 46.077C1.9036 46.1104 5.68505 46.077 10.0021 46.077C16.1596 46.0435 18.0672 45.9431 19.0381 45.5415C20.8787 44.7719 23.0539 42.4627 24.1917 40.0532C25.1622 38.0118 25.2291 37.6438 25.2291 34.0295C25.2291 30.3817 25.1957 30.0806 24.1917 28.173C22.9535 25.7636 20.3432 23.1868 18.5361 22.6178C17.4652 22.2831 15.2231 22.1489 7.45969 21.982C7.12499 21.982 7.02462 20.9446 7.02462 17.9663C7.02462 14.9879 6.92336 13.9505 6.62211 13.9505C6.38791 13.917 5.28356 13.8836 4.14576 13.8501C3.04141 13.8166 1.87015 13.8166 1.5689 13.8836ZM15.3565 28.0058C19.3389 30.2814 19.7405 37.4429 15.9923 40.1201C14.9884 40.8229 14.5198 40.8898 11.0395 40.8898H7.19102L7.09065 34.5319C7.05719 31.0515 7.09065 28.0061 7.15756 27.7719C7.29139 27.4707 8.29537 27.3369 10.7383 27.3369C13.5495 27.3365 14.3526 27.4703 15.3565 28.0058Z" fill="#FFCC2F"/>
<path d="M56.4512 13.8799C55.9492 13.9803 55.8823 14.5492 55.8823 17.9961C55.8823 22.38 56.0161 22.1122 53.6736 21.9784C52.2011 21.9115 51.833 22.5808 51.9334 25.0573L52.0338 27.1656L53.9748 27.266L55.8823 27.3663V34.2266C55.8823 42.7267 56.2498 43.8645 59.3294 45.4374C60.4003 46.0063 61.1699 46.0732 64.3491 46.0063L68.0973 45.9059L68.1976 43.9314C68.3315 41.6224 68.0973 41.388 65.8886 41.388C64.1818 41.388 62.7428 40.4175 62.4082 38.9786C62.3079 38.577 62.2744 35.7994 62.3079 32.8545L62.4082 27.5L64.7505 27.4003C68.6665 27.2665 68.599 27.3334 68.599 24.8234C68.599 22.2127 68.1974 21.8786 65.1519 21.9789C64.0141 22.0124 62.8763 22.0458 62.6755 22.0124C62.3408 21.9789 62.2404 20.9415 62.2404 17.9631C62.2404 15.7545 62.1401 13.9474 62.0062 13.9474C59.7642 13.8129 56.8528 13.8129 56.4512 13.8799Z" fill="#FFCC2F"/>
<path d="M116.79 20.2677C114.648 20.937 111.77 23.1457 111.77 24.1162C111.77 24.4174 112.339 25.254 113.076 26.0236L114.347 27.3956L116.02 26.1909C117.292 25.2873 118.028 24.9862 119.032 24.9862C121.575 24.9862 122.68 27.2953 121.04 29.2029C120.471 29.8393 119.701 30.2068 118.262 30.5081L116.288 30.9097V34.8579L118.062 35.0587C120.973 35.4262 122.111 36.5646 121.676 38.8402C121.241 41.1828 117.694 41.7182 114.816 39.9111C114.08 39.4091 113.277 39.041 113.042 39.041C112.807 39.041 112.038 39.9446 111.335 41.0824C110.164 42.9564 110.097 43.1573 110.565 43.6931C111.101 44.2954 114.079 45.7345 116.154 46.3703C117.627 46.8392 120.705 46.8392 120.973 46.4038C121.074 46.203 121.475 46.0691 121.843 46.0691C122.212 46.0691 123.082 45.7015 123.784 45.266L125.056 44.4295L124.119 42.4885C123.249 40.7483 123.148 40.1794 123.148 37.1675C123.148 33.4528 123.65 31.7127 125.658 28.5C126.227 27.5629 126.795 26.559 126.929 26.2244C127.532 24.5846 124.654 21.0039 122.177 20.301C120.806 19.9331 117.995 19.8997 116.79 20.2677Z" fill="white"/>
<path d="M132.651 23.054C128.87 27.003 126.628 30.4498 125.624 33.8967C124.854 36.6074 125.122 39.8531 126.293 41.8279C127.331 43.6684 129.673 45.7098 130.944 45.9776C131.446 46.078 131.948 46.3123 132.049 46.4465C132.283 46.8482 135.362 46.8482 136.131 46.4465C136.433 46.2793 137.236 45.9111 137.906 45.6434C142.858 43.5351 144.665 37.2103 141.62 32.6255C140.549 30.9857 138.106 29.4462 136.132 29.1783C135.228 29.0445 134.526 28.7767 134.526 28.5425C134.526 28.175 135.295 27.3043 138.909 23.3555C140.014 22.1842 140.884 21.1133 140.884 20.946C140.884 20.7787 139.545 20.6445 137.939 20.6445H134.961L132.651 23.054ZM136.6 34.9341C139.077 37.2767 137.403 41.4264 133.957 41.393C131.915 41.3595 130.509 39.8201 130.509 37.511C130.51 34.1644 134.191 32.6251 136.6 34.9341Z" fill="white"/>
<path d="M144.231 21.0714C143.963 21.3056 143.193 22.0753 142.524 22.8115C141.42 24.1169 141.353 24.284 141.42 26.3253C141.486 27.53 141.52 28.6009 141.52 28.7348C141.553 28.8351 142.055 29.5712 142.691 30.3076C143.327 31.0773 143.929 31.9805 144.063 32.3156C144.197 32.8176 144.699 33.0183 146.205 33.1857C148.648 33.4534 149.953 34.2566 150.723 35.8295C151.426 37.302 151.225 38.6406 150.087 39.8453C149.251 40.7489 146.975 41.5181 146.105 41.1838C145.536 40.9496 144.231 41.8866 144.231 42.4892C144.231 42.6899 143.896 43.2923 143.461 43.8612C142.122 45.6354 142.122 45.6354 143.863 46.2037C148.38 47.6762 153.701 45.6013 155.877 41.5526C156.713 39.9797 156.613 35.2612 155.71 33.5209C154.237 30.7433 152.095 29.4382 148.481 29.0701L146.072 28.8359V25.8234L150.288 25.7231L154.538 25.6227L155.074 23.7152C155.978 20.4022 156.346 20.6364 150.188 20.6364C146.406 20.6699 144.565 20.7702 144.231 21.0714Z" fill="white"/>
<path d="M35.9043 22.6805C34.8334 23.0822 33.4948 24.0191 32.3905 25.09L30.6162 26.8302L39.953 26.9305C45.073 26.964 49.3565 26.9305 49.457 26.8302C49.7583 26.5625 49.7248 23.1824 49.4236 22.5466C49.1894 22.0446 48.5872 21.9777 43.3999 22.0111C38.481 22.0111 37.3766 22.1116 35.9043 22.6805Z" fill="white"/>
<path d="M28.5085 32.4198C27.973 32.9552 28.0065 35.4651 28.5754 37.5733C29.4455 40.9198 31.7881 43.8647 34.733 45.3707C35.9377 45.9731 36.7744 46.04 42.6641 46.0734C46.3788 46.1069 49.4241 45.9731 49.5915 45.8058C49.7589 45.6385 49.8591 44.7014 49.7922 43.6974L49.6918 41.8904L44.1701 41.7231C39.4849 41.5892 38.5145 41.4554 37.7113 40.92C36.6739 40.2172 35.8038 38.7782 35.8038 37.7073C35.8038 37.0715 35.9711 37.038 42.4634 37.038C46.8139 37.038 49.2233 36.9042 49.3577 36.6705C49.7252 36.135 49.7593 32.8889 49.4246 32.4204C48.9892 31.8509 29.1108 31.8173 28.5085 32.4198Z" fill="#FFCC2F"/>
<path d="M93.598 35.1639C92.5606 36.536 91.6904 37.8411 91.6904 38.042C91.6904 38.6443 95.3047 42.6266 97.48 44.4673L99.4211 46.0735H104.274C106.917 46.0735 109.093 45.9397 109.093 45.7723C109.093 45.6384 108.289 44.9692 107.318 44.3332C105.043 42.7938 99.6548 37.439 97.7139 34.7622C96.9109 33.6246 96.0744 32.6875 95.8736 32.6875C95.6729 32.6875 94.6686 33.7918 93.598 35.1639Z" fill="white"/>
</svg>